<svg version="1.2" xmlns="http://www.w3.org/2000/svg" viewBox="0 0 829 509" width="829" height="509">
	<title>task-svg</title>
	<style>
		.s0 { opacity: .3;fill: #dce6ef } 
		.s1 { opacity: .8;fill: #ffbe55 } 
		.s2 { fill: #0b4870 } 
		.s3 { fill: #ffbe55 } 
		.s4 { fill: #f2f2f2 } 
		.s5 { fill: #d3d3d3 } 
		.s6 { fill: #fab9af } 
		.s7 { fill: #e8948b } 
	</style>
	<g id="Layer">
		<path id="Layer" class="s0" d="m395 466.5q0.3-1.8 0.6-3.6h-285.7q1.1-4.9 2-10c2.7-15.3 4.1-31.3 5.8-48.2 1.1-11.4 3.6-24.3 11.9-29.5 8.1-5 18.1 0.2 24.5 8.1 6.4 7.9 10.4 18.3 16.1 26.9 10.3 15.8 25.6 20.2 35.5 2.7 14.3-25 18.1-56.1 25.5-84.6 5.4-20.8 9.1-44.6 16.7-64.2 11.6-29.9 29.2-56.9 56.6-62.2 17.8-0.2 35.5 15.9 48.8 37.6 13.4 21.7 23 48.7 31.7 75.8 8 25.1 15.5 50.6 22.6 76.3 3.9-21.4 8-42.6 12.7-63.5 5.7-25 12.3-50.1 23.7-71.2 11.3-21 28.1-37.9 47.1-40.8 30.1 0 52.6 20.5 69.1 44.5 10.8 15.8 18 35.8 26.6 52.9 11.8 23.5 20.2 49.8 38.8 69.1 13 13.6 28.8 7.1 37.7-8.3 4.9-8.4 7.8-18.1 13.6-26 5.7-7.9 15.8-14.1 25.1-11.1 9.6 3 14 13.9 16.8 23.6 4 14.3 7.8 28 12.8 40.8 6.5 16.8 15.3 32.3 29.8 46.4 1.8 1.7 11.1 14.1 12.6 14.1 0 0-379 4.4-379 4.4z"/>
		<path id="Layer" class="s1" d="m659.7 423.3c-0.8 14.7-16.8 40.4-31.5 39.7-14.8-0.7-22.6-27.7-21.9-42.4 0.8-14.7 16.4-88.5 31.2-87.7 14.7 0.7 22.9 75.6 22.2 90.4z"/>
		<g id="Layer">
			<path id="Layer" class="s2" d="m629.3 462.2q0 0 0 0c-0.2 0-0.4-0.2-0.3-0.4l7.4-119.4c0-0.2 0.2-0.4 0.4-0.3 0.2 0 0.4 0.2 0.4 0.4l-7.5 119.4c0 0.2-0.2 0.3-0.4 0.3z"/>
		</g>
		<path id="Layer" class="s1" d="m649.2 385.8c11.4-12.4 29.2-17.7 35.3-12.8 4.5 3.4-5 16.5-6.6 19.9-3.8 7.9-5.8 16.5-7.8 25-2.5 10.8-5.3 21.9-11.7 30.9-6.5 9.1-17.4 15.8-28.4 14-4.4-0.8-8.9-3.1-10.9-7.2-1.9-3.7-1.4-8.2-0.6-12.2 1.5-8.1 4.1-15.8 7.4-23.2 5.8-12.6 13.9-24.1 23.3-34.4z"/>
		<g id="Layer">
			<path id="Layer" class="s2" d="m630 463.2q0 0-0.1-0.1c-0.2 0-0.3-0.2-0.2-0.4 0.1-0.5 13.6-51.9 45.2-81.2 0.2-0.1 0.4-0.1 0.6 0 0.1 0.2 0.1 0.4-0.1 0.6-31.4 29.1-44.9 80.3-45 80.8 0 0.1-0.2 0.3-0.4 0.3z"/>
		</g>
		<path id="Layer" class="s1" d="m703.4 408.1c-1.2 2-3.3 3.4-5.2 4.5-2.4 1.3-4.9 2.5-7.4 3.6-3.1 1.5-6.3 3-9.3 4.9-2.2 1.3-4.2 2.9-5.8 4.5 2.6-5.8 5.6-10.9 9.1-15.5 4.7-6 9.5-9 14.3-9q0.1 0 0.3 0 2.2 0.1 3.4 1.1c1.6 1.4 1.6 4.1 0.6 5.9z"/>
		<path id="Layer" class="s1" d="m708.7 441.3c-1.9 1.4-4.4 1.7-6.6 1.9-2.7 0.2-5.5 0.2-8.2 0.2-3.5-0.1-7-0.1-10.5 0.3-2.6 0.3-5 0.9-7.2 1.7 4.8-4.2 9.7-7.5 14.9-10.1 6.7-3.4 12.4-4.1 16.7-2.1q0.2 0.1 0.3 0.2 2 1 2.6 2.4c0.9 1.9-0.3 4.3-2 5.5z"/>
		<path id="Layer" class="s1" d="m696.1 457.7c-1.6-0.2-3-1.2-4.1-2.2-1.5-1.1-2.9-2.4-4.2-3.7-1.7-1.7-3.5-3.3-5.4-4.8-1.4-1-2.9-1.9-4.4-2.5 4.4 0.2 8.4 0.8 12.2 1.9 5 1.5 8.1 3.8 9.3 6.8q0 0.1 0.1 0.2 0.5 1.5 0.1 2.5c-0.5 1.4-2.2 2-3.6 1.8z"/>
		<g id="Layer">
			<path id="Layer" class="s2" d="m660.3 463.5c-0.2-0.1-0.4-0.2-0.4-0.4 0-0.3 0.6-32 38.8-58.6 0.1-0.1 0.4-0.1 0.5 0.1 0.1 0.2 0.1 0.4-0.1 0.6-37.9 26.3-38.5 57.6-38.5 57.9 0.1 0.2-0.1 0.4-0.3 0.4z"/>
		</g>
		<g id="Layer">
			<path id="Layer" class="s2" d="m660.3 463.5q-0.1 0-0.2-0.1c-0.2-0.1-0.3-0.3-0.2-0.5 0.1-0.2 12.3-25.5 44.2-25.5 0.2 0 0.4 0.2 0.4 0.4 0 0.2-0.2 0.4-0.4 0.4-31.4 0-43.4 24.8-43.5 25 0 0.2-0.2 0.3-0.3 0.3z"/>
		</g>
		<g id="Layer">
			<path id="Layer" class="s2" d="m696.8 454.5q-0.1 0-0.2-0.1c-12.6-9.5-18.8-9.2-18.9-9.2-0.2 0-0.4-0.2-0.4-0.4 0-0.2 0.2-0.4 0.4-0.4 0.2 0 6.5-0.3 19.4 9.4 0.1 0.1 0.2 0.4 0.1 0.6q-0.2 0.1-0.4 0.1z"/>
		</g>
		<g id="Layer">
			<path id="Layer" class="s3" d="m214.1 425.7c2.6 6.2 2.1 13.7-1.2 19.6-4.5 7.8-13.5 14.9-21.6 17.8 0 0-22.8 1.2-33.3-1.4-11.5-2.9-21.6-11.8-18.7-24.6 1.3-6.3 4.9-11.8 7.1-17.9 2.2-6 3-13.3-0.8-18.5-3.8-5.2-11.6-7.3-13.7-13.5-2.7-8.3 7.3-16.2 6.4-25-0.6-5.8-5.7-9.9-9.7-14.2-6-6.4-7.4-21 1.6-25.7 8.6-4.6 18.6 4.1 22.8 11 3.9 6 2.4 13 9.5 17 4.4 2.6 9.6 3.2 14.5 4.3 4.9 1 10.1 2.7 13.3 6.6 4 4.7 4.2 11.4 3.5 17.5-0.6 6.1-1.9 12.3-0.2 18.2 2.2 8.1 9.2 13.7 14.8 20.1 2.3 2.6 4.3 5.5 5.7 8.7z"/>
			<g id="Layer">
				<path id="Layer" class="s2" d="m183.4 463.1c-0.2 0-0.3-0.1-0.4-0.3-4.1-65.8-42.6-125.9-43-126.5-0.1-0.2 0-0.4 0.2-0.5 0.1-0.2 0.4-0.1 0.5 0.1 0.4 0.6 38.9 60.8 43.1 126.8 0 0.2-0.1 0.4-0.3 0.4q-0.1 0-0.1 0z"/>
			</g>
			<path id="Layer" class="s3" d="m105.8 417q0.9-0.7 2.5-0.8 0.2 0 0.3 0c3.6 0 7.2 2.3 10.8 6.8 2.6 3.5 4.9 7.4 6.8 11.8-1.2-1.3-2.7-2.5-4.3-3.5-2.3-1.4-4.7-2.6-7.1-3.7-1.8-0.8-3.8-1.7-5.5-2.7-1.5-0.8-3.1-1.9-4-3.4-0.7-1.4-0.8-3.4 0.5-4.5z"/>
			<path id="Layer" class="s3" d="m99.8 442.5q0.5-1.1 2-1.9 0.1-0.1 0.2-0.1c3.3-1.6 7.5-1 12.6 1.6 3.9 1.9 7.6 4.5 11.3 7.6-1.7-0.6-3.5-1-5.4-1.3-2.7-0.3-5.4-0.3-8-0.2-2 0-4.1 0-6.2-0.2-1.7-0.1-3.6-0.3-5-1.4-1.3-0.9-2.2-2.7-1.5-4.1z"/>
			<path id="Layer" class="s3" d="m108.1 457.6q-0.3-0.7 0.1-1.8 0.1-0.1 0.1-0.2c0.9-2.3 3.2-4 7-5.1 2.9-0.9 5.9-1.3 9.2-1.5q-1.7 0.7-3.3 1.9c-1.5 1.1-2.8 2.4-4.1 3.6-1 1-2 2-3.1 2.9-0.9 0.7-2 1.5-3.2 1.6-1 0.2-2.3-0.3-2.7-1.4z"/>
			<g id="Layer">
				<path id="Layer" class="s2" d="m137.9 463.5c-0.2 0-0.4-0.2-0.4-0.4 0-0.3-0.4-23.9-29-43.7-0.2-0.2-0.2-0.4-0.1-0.6 0.1-0.2 0.4-0.2 0.6-0.1 28.9 20.1 29.3 44.1 29.3 44.4 0 0.2-0.2 0.4-0.4 0.4q0 0 0 0z"/>
			</g>
			<g id="Layer">
				<path id="Layer" class="s2" d="m137.9 463.5c-0.1 0-0.3-0.1-0.3-0.3-0.1-0.2-9.1-18.9-32.8-18.9-0.2 0-0.4-0.1-0.4-0.3 0-0.3 0.2-0.4 0.4-0.4 24.2 0 33.4 19.1 33.5 19.3 0.1 0.2 0 0.4-0.2 0.5q-0.1 0.1-0.2 0.1z"/>
			</g>
			<g id="Layer">
				<path id="Layer" class="s2" d="m110.3 456.7q-0.2 0-0.3-0.2c-0.2-0.1-0.1-0.4 0.1-0.5 9.7-7.4 14.5-7.1 14.7-7.1 0.2 0 0.4 0.2 0.4 0.4-0.1 0.2-0.2 0.4-0.5 0.3 0 0-4.7-0.2-14.2 7q-0.1 0.1-0.2 0.1z"/>
			</g>
		</g>
		<g id="Layer">
			<path id="Layer" class="s3" d="m523.8 447h-274.2c-6.1 0-11-4.9-11-11v-369c0-6 4.9-10.9 11-10.9h81.9v3h-81.9c-4.4 0-8 3.5-8 7.9v369c0 4.4 3.6 8 8 8h274.2c4.3 0 7.9-3.6 7.9-8v-369c0-4.4-3.6-7.9-7.9-7.9h-82v-3h82c6 0 10.9 4.9 10.9 10.9v369c0 6-4.9 11-10.9 11z"/>
		</g>
		<path id="Layer" class="s4" d="m512.3 427.6h-251.3c-2.1 0-3.8-1.8-3.8-3.9v-344.4c0-2.1 1.7-3.8 3.8-3.8h251.3c2.2 0 3.9 1.7 3.9 3.8v344.4c0 2.1-1.7 3.9-3.9 3.9z"/>
		<g id="Layer">
			<path id="Layer" fill-rule="evenodd" class="s3" d="m443.1 85.7h-112.9v-37h32.7c0.2-12.9 10.8-23.3 23.8-23.3 12.9 0 23.5 10.4 23.7 23.3h32.7zm-109.9-3h106.9v-30.9h-32.8l0.1-2q0-0.3 0-0.6c0-11.5-9.3-20.8-20.7-20.8-11.5 0-20.8 9.3-20.8 20.8q0 0.3 0 0.6l0.1 2h-32.8z"/>
		</g>
		<g id="Layer">
			<path id="Layer" fill-rule="evenodd" class="s3" d="m386.7 63.1c-7.8 0-14-6.2-14-14 0-7.7 6.2-14 14-14 7.7 0 14 6.3 14 14 0 7.8-6.3 14-14 14zm0-25c-6.1 0-11 5-11 11 0 6.1 4.9 11 11 11 6 0 11-4.9 11-11 0-6-5-11-11-11z"/>
		</g>
		<path id="Layer" class="s5" d="m781 504.9h-732c-11.6 0-21-9.4-21-21 0-11.6 9.4-21 21-21h732c11.6 0 21 9.4 21 21 0 11.6-9.4 21-21 21z"/>
		<g id="Layer">
			<g id="Layer">
				<g id="Layer">
					<path id="Layer" fill-rule="evenodd" class="s2" d="m333.1 173.2h-43.3v-43.3h43.3zm-42.3-1h41.3v-41.2h-41.3z"/>
				</g>
				<g id="Layer">
					<g id="Layer">
						<g id="Layer">
							<path id="Layer" class="s2" d="m312.9 163.7l-14.3-11.3 2.4-3.1 11.6 9.1 25-24.1 2.8 2.8z"/>
						</g>
					</g>
				</g>
				<g id="Layer">
					<g id="Layer">
						<path id="Layer" class="s2" d="m490.6 142.4h-137.7c-0.9 0-1.7-0.7-1.7-1.6 0-0.9 0.8-1.6 1.7-1.6h137.7c0.9 0 1.6 0.7 1.6 1.6 0 0.9-0.7 1.6-1.6 1.6z"/>
					</g>
					<g id="Layer">
						<path id="Layer" class="s2" d="m490.6 149.6h-137.7c-0.9 0-1.7-0.7-1.7-1.6 0-0.9 0.8-1.6 1.7-1.6h137.7c0.9 0 1.6 0.7 1.6 1.6 0 0.9-0.7 1.6-1.6 1.6z"/>
					</g>
					<g id="Layer">
						<path id="Layer" class="s2" d="m490.6 156.8h-137.7c-0.9 0-1.7-0.7-1.7-1.6 0-0.9 0.8-1.7 1.7-1.7h137.7c0.9 0 1.6 0.8 1.6 1.7 0 0.9-0.7 1.6-1.6 1.6z"/>
					</g>
					<g id="Layer">
						<path id="Layer" class="s2" d="m490.6 164h-137.7c-0.9 0-1.7-0.8-1.7-1.7 0-0.9 0.8-1.6 1.7-1.6h137.7c0.9 0 1.6 0.7 1.6 1.6 0 0.9-0.7 1.7-1.6 1.7z"/>
					</g>
				</g>
			</g>
			<g id="Layer">
				<g id="Layer">
					<path id="Layer" fill-rule="evenodd" class="s2" d="m333.1 241.3h-43.3v-43.3h43.3zm-42.3-1h41.3v-41.3h-41.3z"/>
				</g>
				<g id="Layer">
					<g id="Layer">
						<g id="Layer">
							<path id="Layer" class="s2" d="m312.9 231.7l-14.3-11.2 2.4-3.1 11.6 9 25-24.1 2.8 2.9z"/>
						</g>
					</g>
				</g>
				<g id="Layer">
					<g id="Layer">
						<path id="Layer" class="s2" d="m490.6 210.5h-137.7c-0.9 0-1.7-0.7-1.7-1.6 0-0.9 0.8-1.7 1.7-1.7h137.7c0.9 0 1.6 0.8 1.6 1.7 0 0.9-0.7 1.6-1.6 1.6z"/>
					</g>
					<g id="Layer">
						<path id="Layer" class="s2" d="m490.6 217.7h-137.7c-0.9 0-1.7-0.8-1.7-1.7 0-0.9 0.8-1.6 1.7-1.6h137.7c0.9 0 1.6 0.7 1.6 1.6 0 0.9-0.7 1.7-1.6 1.7z"/>
					</g>
					<g id="Layer">
						<path id="Layer" class="s2" d="m490.6 224.8h-137.7c-0.9 0-1.7-0.7-1.7-1.6 0-0.9 0.8-1.6 1.7-1.6h137.7c0.9 0 1.6 0.7 1.6 1.6 0 0.9-0.7 1.6-1.6 1.6z"/>
					</g>
					<g id="Layer">
						<path id="Layer" class="s2" d="m490.6 232h-137.7c-0.9 0-1.7-0.7-1.7-1.6 0-0.9 0.8-1.6 1.7-1.6h137.7c0.9 0 1.6 0.7 1.6 1.6 0 0.9-0.7 1.6-1.6 1.6z"/>
					</g>
				</g>
			</g>
			<g id="Layer">
				<g id="Layer">
					<path id="Layer" fill-rule="evenodd" class="s2" d="m333.1 309.3h-43.3v-43.3h43.3zm-42.3-1h41.3v-41.2h-41.3z"/>
				</g>
				<g id="Layer">
					<g id="Layer">
						<g id="Layer">
							<path id="Layer" class="s2" d="m312.9 299.8l-14.3-11.3 2.4-3.1 11.6 9.1 25-24.1 2.8 2.8z"/>
						</g>
					</g>
				</g>
				<g id="Layer">
					<g id="Layer">
						<path id="Layer" class="s2" d="m490.6 278.5h-137.7c-0.9 0-1.7-0.7-1.7-1.6 0-0.9 0.8-1.6 1.7-1.6h137.7c0.9 0 1.6 0.7 1.6 1.6 0 0.9-0.7 1.6-1.6 1.6z"/>
					</g>
					<g id="Layer">
						<path id="Layer" class="s2" d="m490.6 285.7h-137.7c-0.9 0-1.7-0.7-1.7-1.6 0-0.9 0.8-1.6 1.7-1.6h137.7c0.9 0 1.6 0.7 1.6 1.6 0 0.9-0.7 1.6-1.6 1.6z"/>
					</g>
					<g id="Layer">
						<path id="Layer" class="s2" d="m490.6 292.9h-137.7c-0.9 0-1.7-0.7-1.7-1.6 0-0.9 0.8-1.7 1.7-1.7h137.7c0.9 0 1.6 0.8 1.6 1.7 0 0.9-0.7 1.6-1.6 1.6z"/>
					</g>
					<g id="Layer">
						<path id="Layer" class="s2" d="m490.6 300.1h-137.7c-0.9 0-1.7-0.8-1.7-1.7 0-0.9 0.8-1.6 1.7-1.6h137.7c0.9 0 1.6 0.7 1.6 1.6 0 0.9-0.7 1.7-1.6 1.7z"/>
					</g>
				</g>
			</g>
			<g id="Layer">
				<g id="Layer">
					<path id="Layer" fill-rule="evenodd" class="s2" d="m333.1 377.4h-43.3v-43.3h43.3zm-42.3-1h41.3v-41.3h-41.3z"/>
				</g>
				<g id="Layer">
					<g id="Layer">
						<g id="Layer">
							<path id="Layer" class="s2" d="m312.9 367.8l-14.3-11.2 2.4-3.1 11.6 9 25-24.1 2.8 2.9z"/>
						</g>
					</g>
				</g>
				<g id="Layer">
					<g id="Layer">
						<path id="Layer" class="s2" d="m490.6 346.6h-137.7c-0.9 0-1.7-0.7-1.7-1.6 0-0.9 0.8-1.7 1.7-1.7h137.7c0.9 0 1.6 0.8 1.6 1.7 0 0.9-0.7 1.6-1.6 1.6z"/>
					</g>
					<g id="Layer">
						<path id="Layer" class="s2" d="m490.6 353.8h-137.7c-0.9 0-1.7-0.8-1.7-1.7 0-0.9 0.8-1.6 1.7-1.6h137.7c0.9 0 1.6 0.7 1.6 1.6 0 0.9-0.7 1.7-1.6 1.7z"/>
					</g>
					<g id="Layer">
						<path id="Layer" class="s2" d="m490.6 360.9h-137.7c-0.9 0-1.7-0.7-1.7-1.6 0-0.9 0.8-1.6 1.7-1.6h137.7c0.9 0 1.6 0.7 1.6 1.6 0 0.9-0.7 1.6-1.6 1.6z"/>
					</g>
					<g id="Layer">
						<path id="Layer" class="s2" d="m490.6 368.1h-137.7c-0.9 0-1.7-0.7-1.7-1.6 0-0.9 0.8-1.6 1.7-1.6h137.7c0.9 0 1.6 0.7 1.6 1.6 0 0.9-0.7 1.6-1.6 1.6z"/>
					</g>
				</g>
			</g>
		</g>
		<g id="Layer">
			<g id="Layer">
				<path id="Layer" class="s6" d="m497.6 298.3c2.2-1.6 4.3-3.4 5.2-3.9 0.4-0.3 1.7-0.5 2-0.7 1-0.3 2.7-0.6 3.4-1.4l3.1-3.4c1.5-1.6 3.4-2.2 5-0.7 1.8 1.5 1.3 3.8-0.5 5.4l-2.1 2.4c-1.4 1.3-2.1 3.1-2.9 4.8-1.6 3.6-5.2 6.2-8.3 8.1-2 1.2-4.9 0.3-8.8-1-1.9-0.6-4.7-2.2-2.3-3.1 2-0.7 8 0.9 10.6-4.6 0.1-0.3 0.4-1 0.2-1.3-0.8-0.7-2.6 1-3.8 1.5-1.7 0.8-3 0.5-3.4-0.1-0.4-0.6 1-0.8 2.6-2z"/>
				<path id="Layer" class="s3" d="m581.7 177.4c0 0-4.9 59.3-22.6 79.3-10.7 12.1-36.9 32.8-42.9 37.5-0.8 0.6-1.9 0.7-2.6 0.1-0.6-0.4-1.1-0.8-1.6-1.2-0.5-0.5-1.1-1.1-1.7-1.8-0.8-1-0.8-2.5 0.1-3.5 6.8-7.4 33.4-36.6 36.6-44.3 3.7-8.8 10.1-60.8 16-68.3 5.9-7.6 17.1-9.2 18.7 2.2z"/>
				<path id="Layer" class="s6" d="m559.3 275.4l15.2-106.2 40.7-5.6 21.2 111z"/>
				<path id="Layer" class="s6" d="m590.9 440l-0.1 11.9q0 3.7 1 7.2l1 3.7c0.9 3.1-1.4 6.1-4.5 6-8.2 0-22.1 0-25.7 0-0.6 0-1.2-0.4-1.2-0.9-0.3-3.5 9.8-5.9 17.4-8.8 5.8-2.3 5.5-12.7 4.7-18.7-0.2-2.3 1.7-4.3 4-4.1 1.9 0.2 3.4 1.7 3.4 3.7z"/>
				<path id="Layer" class="s6" d="m646.9 436.6l4.1 13.7q0.3 0.9 0.8 1.7l2.9 4.3c1.9 2.8 0.6 6.6-2.6 7.5 0 0-5.9 2.1-12 4.1-6.2 2-14 0.3-14-1.3 0-3.7 3.4-0.8 9.1-4.6 1.9-1.3 3.8-2.6 5.6-4 4.9-3.8 0.6-13.6-2.4-19-1.1-2 0.1-4.5 2.3-4.9l1.4-0.3c2.1-0.5 4.2 0.8 4.8 2.8z"/>
				<path id="Layer" class="s2" d="m595 339.5c-1.6 8.5-1.7 34.4-2.2 58.7-0.5 25.4-1.4 48.9-1.4 48.9-2.9 0.7-5.7 0.4-8.4-0.8 0 0-11.2-53.3-16.6-81.3-11.4-59.5-6.8-92.4-6.8-92.4l45.2 3.8c0 0-6.7 45.7-9.8 63.1z"/>
				<path id="Layer" class="s2" d="m636.5 276.9c1.3 15.8-3.2 48.4-7.1 72.9-2.1 13.1 5.2 38.1 11.1 59.4 5 18.6 8.6 34.6 8.6 34.6-2.3 1.7-4.8 2.7-7.5 2.6 0 0-21.1-36.6-41.2-71.8-20-35.1-9.6-72.6-5-97.6 2.5-13.2 39.7-16 41.1-0.1z"/>
				<path id="Layer" class="s4" d="m557.8 272.7l16.7-103.5 40.7-5.6 21.9 109.3c0.5 2-0.9 4-2.9 4.4-7.6 1.5-25.9 4.5-46.4 4.5-15.3 0-23.9-3-27.8-4.9-1.6-0.8-2.5-2.5-2.2-4.2z"/>
				<path id="Layer" class="s6" d="m638.5 312.8c0.6-2.7 1-5.5 1.3-6.5 0.1-0.4 0.9-1.5 1.1-1.8 0.6-0.9 1.6-2.2 1.6-3.3l0.1-4.6c0-2.2 1.1-3.9 3.3-3.9 2.3 0 3.4 2.1 3.2 4.4v3.2c-0.3 1.9 0.4 3.8 1 5.6 1.1 3.7 0.1 8.1-0.9 11.6-0.7 2.1-3.5 3.5-7.3 5-1.8 0.8-4.9 1.4-3.7-0.8 1-1.9 6.5-4.6 4.9-10.5-0.1-0.3-0.4-1-0.8-1-1.1 0-1.3 2.4-1.8 3.6-0.7 1.7-1.9 2.3-2.6 2.2-0.8-0.2 0.1-1.3 0.6-3.3z"/>
				<path id="Layer" class="s3" d="m607.2 164.9l6.1-0.7c0 0 14.5 32.6 19.7 55.3 5.2 22.7 9.7 75.1 9.1 79.3-0.6 4.3-21 17.1-31.7 9.4-10.6-7.7-2.4-20.9 4-53.8 4.5-22.9-3-48.8-8-62.5-2.5-7-3.9-14.4-3.9-21.9 0-2.6 2-4.9 4.7-5.1z"/>
				<path id="Layer" class="s3" d="m621.7 166.4c0 0 35.5 47.8 35.4 74.5 0 16.1-6 48.9-7.4 56.5-0.1 0.9-0.9 1.7-1.9 1.7-0.6 0.1-1.3 0.2-2 0.2-0.7 0-1.6-0.1-2.4-0.2-1.3-0.2-2.3-1.4-2.3-2.8 0.3-10 0.9-49.5-1.8-57.4-3-9.1-32.6-52.3-33.2-61.8-0.6-9.5 6.8-18.2 15.6-10.7z"/>
				<path id="Layer" class="s3" d="m585.5 167.7c0 0-7.1 15.3-4.6 37.2 2.5 22 8.2 88.8-11.8 98.9-6.3 3.2-20.8-10.9-20.8-16.2 0-5.2 4.9-22.8 9.4-38.8 4.6-16 15.6-79.5 15.6-79.5z"/>
				<g id="Layer">
					<path id="Layer" class="s6" d="m591.2 120.3c9.1 0 12.5 6.5 12.7 18.5 0.1 4.5-2 8.9-3.6 11.7-1.2 2.1-1.5 4.6-0.9 7l2 6.7c1.4 6.3-1.6 9.7-6 11-2.2 0.6-4.8 0.1-6.7-1.1-2.2-1.4-2.4-4.6-2-7.3l0.5-1.9c0.7-2.6-0.8-5.4-3.4-6-7-1.5-8-8.8-9.9-20.1-2-11.9 8.2-18.5 17.3-18.5z"/>
					<path id="Layer" class="s2" d="m570 115l5.2 1.6c2 0.6 4 0.6 5.9 0.1l10.4-3c6.4 0 16.8 3.5 15.5 12.6l-1.2 6.5c-0.5 2.5-2.6 4.5-5.2 4.7-0.3 0.9-1.1 1.5-2 1.5-1.1 0-2-0.9-2-2 0-3-2.1-5.4-4.9-6.1-3.5-0.7-7.2-0.9-11.1 0.1-7.2 2-14.9-2.5-15.6-10q0-0.7 0-1.4c0-3.1 2.4-5.3 5-4.6z"/>
					<path id="Layer" class="s6" d="m602.6 133.9c2.6 0 4.4 0.7 4.4 3.5 0 2.8-1.7 6.6-4.4 6.6-2.7 0-3.7-2.2-3.7-5 0-2.8 1-5.1 3.7-5.1z"/>
				</g>
			</g>
			<path id="Layer" class="s7" d="m586.9 161.5c-0.4-1.4-2.2-2.2-2.2-2.2 8.5 1.2 15.3-8.1 15.3-8.1-5.1 9.7-13.1 10.3-13.1 10.3z"/>
		</g>
		<path id="Layer" class="s4" d="m618 20.9c0 6.5-4.3 11.8-9.6 11.8h-113.4c-5.3 0-9.6-5.3-9.6-11.8 0-6.5 4.3-11.7 9.6-11.7h113.4c5.3 0 9.6 5.2 9.6 11.7z"/>
		<path id="Layer" class="s4" d="m211.8 83.9c0 6.5-5.2 11.8-11.7 11.8h-139.5c-6.4 0-11.7-5.3-11.7-11.8 0-6.5 5.2-11.8 11.7-11.8h139.5c6.5 0 11.7 5.3 11.7 11.8z"/>
		<path id="Layer" class="s4" d="m268.8 20.9c0 6.5-4.3 11.8-9.7 11.8h-115.4c-5.3 0-9.7-5.3-9.7-11.8 0-6.5 4.4-11.8 9.7-11.8h115.4c5.4 0 9.7 5.3 9.7 11.8z"/>
		<path id="Layer" class="s4" d="m742.2 71.9c0 6.5-5.2 11.7-11.7 11.7h-139.5c-6.5 0-11.7-5.2-11.7-11.7 0-6.5 5.2-11.8 11.7-11.8h139.5c6.5 0 11.7 5.3 11.7 11.8z"/>
	</g>
	<path id="Layer" class="s2" d="m590.7 471.2c0 0-20.2 0.2-25.5 0.3-5.2 0.1-8.2-2-4.1-6.3 4.2-4.3 18.8-6.7 18.8-6.7 5.8 4.4 12.2 1.6 12.2 1.6 3.8 7.9-1.4 11.1-1.4 11.1z"/>
	<path id="Layer" class="s2" d="m654.8 464.1c0 0-19.2 6.1-24.2 7.8-5 1.6-8.5 0.5-5.8-4.9 2.7-5.3 18.1-12.3 18.1-12.3 6.9 2.4 9.9-1.7 9.9-1.7 6 6.5 2 11.1 2 11.1z"/>
</svg>